PathFileType	4	(X/Y/Z)	E:\Qualisys_Data\Carbon_Farble_Plate\Data\Amateur_Runner\S14\T2\S14T2V24_c3d.trc
DataRate	CameraRate	NumFrames	NumMarkers	Units	OrigDataRate	OrigDataStartFrame	OrigNumFrames
200.000000	200.000000	4	39	mm	200.000000	236	315
Frame#	Time	LSHO			RSHO			LICST			RICST			LASIS			LHEEL			RASIS			LTROC			RTROC			SACR			LTH1			LSK4			LTH2			LTH3			RHM5			LSK2			LTH4			RTH1			LTOE			RTH2			RTH3			RTH4			LLEP			RLEP			LSK1			LSK3			RSK1			LHM5			RSK2			LFT1			RSK3			RSK4			LLME			RLME			RTOE			RHEEL			RFT1			RFT2			LFT2			
		X1	Y1	Z1	X2	Y2	Z2	X3	Y3	Z3	X4	Y4	Z4	X5	Y5	Z5	X6	Y6	Z6	X7	Y7	Z7	X8	Y8	Z8	X9	Y9	Z9	X10	Y10	Z10	X11	Y11	Z11	X12	Y12	Z12	X13	Y13	Z13	X14	Y14	Z14	X15	Y15	Z15	X16	Y16	Z16	X17	Y17	Z17	X18	Y18	Z18	X19	Y19	Z19	X20	Y20	Z20	X21	Y21	Z21	X22	Y22	Z22	X23	Y23	Z23	X24	Y24	Z24	X25	Y25	Z25	X26	Y26	Z26	X27	Y27	Z27	X28	Y28	Z28	X29	Y29	Z29	X30	Y30	Z30	X31	Y31	Z31	X32	Y32	Z32	X33	Y33	Z33	X34	Y34	Z34	X35	Y35	Z35	X36	Y36	Z36	X37	Y37	Z37	X38	Y38	Z38	X39	Y39	Z39	

237	1.18	1819.900390625	1400.615478515625	-508.3450622558594	1922.252319335938	1392.732299804688	-237.6931915283203	1879.921508789062	945.0941772460938	-492.2887878417969	1899.178100585938	953.4542846679688	-218.6126556396484	1925.31005859375	897.4706420898438	-465.3785705566406	2085.359130859375	65.54651641845703	-403.2647399902344	1923.702392578125	908.7684326171876	-233.6939697265625	1809.068603515625	821.2427978515625	-519.0447387695312	1763.145751953125	844.23486328125	-185.239990234375	1751.218627929688	939.2606811523438	-364.6402587890625	1958.080322265625	622.3057250976562	-530.5283813476562	2022.6103515625	251.5952758789062	-477.1951599121094	1897.771484375	588.9453735351562	-494.0321960449219	2016.484741210938	543.6207275390625	-509.5066833496094	1265.179077148438	300.9867248535156	-171.7473754882812	1994.605346679688	345.848388671875	-492.0828247070312	1951.202514648438	508.3235168457031	-481.8378295898438	1817.904907226562	610.5289306640625	-163.4660339355469	2328.463623046875	103.1595458984375	-481.1449279785156	1744.315795898438	638.5695190429688	-161.4463348388672	1788.247192382812	514.766357421875	-174.7069854736328	1709.101806640625	543.64111328125	-171.7636871337891	2011.7216796875	454.5526123046875	-503.3653564453125	1702.181518554688	472.5232849121094	-163.9325866699219	2072.2021484375	366.9974365234375	-510.1941833496094	2098.4345703125	268.921875	-499.5393676757812	1594.34521484375	418.072509765625	-167.9761352539062	2258.05224609375	53.1094856262207	-518.703369140625	1573.73876953125	499.9058532714844	-182.3839721679688	2103.25048828125	41.92108917236328	-380.2054748535156	1495.303833007812	396.3907165527344	-191.3100280761719	1483.672485351562	473.5186462402344	-205.3768768310547	2120.78173828125	86.86013793945312	-474.8888854980469	1327.127685546875	411.1854858398438	-234.9468078613281	1283.428955078125	206.4668731689453	-198.7798461914062	1311.7119140625	442.0062561035156	-310.74560546875	1280.082153320312	416.221923828125	-334.441650390625	1280.53662109375	450.629638671875	-287.9802551269531	2086.194091796875	30.39484786987305	-432.1636352539062
238	1.185	1841.820434570312	1394.7783203125	-510.037353515625	1942.770385742188	1387.628662109375	-238.1056213378906	1900.896362304688	940.8045654296876	-492.9116516113281	1920.798583984375	948.4754028320312	-218.3953094482422	1946.42919921875	893.700927734375	-466.3306884765625	2092.58203125	65.5263442993164	-403.4172668457031	1945.307250976562	903.8694458007812	-233.9638977050781	1829.373291015625	816.4024658203125	-518.3320922851562	1785.405883789062	837.8560791015625	-185.2808074951172	1772.464965820312	933.759033203125	-364.3612060546875	1980.99853515625	618.6845703125	-529.5028686523438	2040.318481445312	248.2560577392578	-477.864013671875	1919.974731445312	585.00146484375	-495.2510375976562	2039.20263671875	540.2052001953125	-510.3467407226562	1292.181274414062	301.1714782714844	-174.242919921875	2015.406127929688	343.7208557128906	-493.499267578125	1973.458374023438	504.0449829101562	-482.5300598144531	1843.682006835938	604.9718017578125	-163.0225219726562	2342.241455078125	81.0228500366211	-474.3001403808594	1769.731567382812	631.7122802734375	-160.6034698486328	1815.396850585938	508.5239868164062	-173.8118438720703	1735.505615234375	536.467529296875	-170.23046875	2033.980834960938	450.928955078125	-503.6617736816406	1730.214965820312	465.0221862792969	-162.4516754150391	2093.785888671875	362.7892761230469	-509.9152526855469	2117.378662109375	263.8778991699219	-497.7889099121094	1622.040893554688	412.2088012695312	-167.3766632080078	2267.087890625	40.24758911132812	-518.29736328125	1602.462890625	494.7931518554688	-181.52001953125	2107.7314453125	41.07231140136719	-379.4915466308594	1522.775268554688	392.3502197265625	-192.0381774902344	1512.146850585938	470.0318603515625	-204.5958251953125	2131.133056640625	82.91258239746094	-474.9680786132812	1355.561401367188	410.3005065917969	-236.8933410644531	1309.54931640625	206.1416168212891	-201.5498809814453	1340.12841796875	441.8675537109375	-312.2487182617188	1308.685791015625	416.7731628417969	-335.9035034179688	1309.293823242188	451.0450134277344	-289.25537109375	2090.30126953125	31.37509155273438	-432.4119262695312
239	1.19	1864.158325195312	1388.555053710938	-511.7677612304688	1963.102661132812	1382.64453125	-238.5021057128906	1921.056518554688	935.9837036132812	-493.7045593261719	1942.161987304688	943.2440185546876	-218.2192535400391	1969.218627929688	889.862060546875	-468.5369262695312	2096.71923828125	65.05675506591797	-404.5838623046875	1966.887451171875	899.0671997070312	-234.2211608886719	1849.233764648438	811.1181640625	-517.2234497070312	1808.179443359375	831.0946655273438	-185.5956115722656	1793.3994140625	928.6618041992188	-364.0331420898438	2003.935546875	616.3338012695312	-529.8380126953125	2057.831298828125	246.6405029296875	-478.0505981445312	1942.330932617188	581.7408447265625	-496.4195556640625	2061.57763671875	536.5542602539062	-512.0099487304688	1319.787841796875	299.6214904785156	-176.6985931396484	2036.690185546875	342.6254577636719	-494.8733215332031	1995.786987304688	501.2265319824219	-483.8341674804688	1869.6484375	599.3301391601562	-162.5444488525391	2353.461181640625	68.47100067138672	-458.5732727050781	1795.321533203125	624.4772338867188	-160.0481109619141	1842.877197265625	501.7863159179688	-173.3683624267578	1762.779296875	528.9198608398438	-168.8606719970703	2057.471923828125	448.4627380371094	-504.8130798339844	1758.642456054688	458.14501953125	-161.1973266601562	2115.926025390625	358.9988098144531	-510.3714599609375	2135.52294921875	258.8930358886719	-496.5109252929688	1650.252685546875	406.6465148925781	-167.0392303466797	2274.27880859375	43.52399063110352	-514.8260498046875	1631.4560546875	488.9763793945312	-180.4902801513672	2109.759521484375	39.92531967163086	-380.0705261230469	1550.97314453125	388.1155090332031	-192.3304138183594	1541.474731445312	465.9804077148438	-204.0988616943359	2139.885498046875	79.7655258178711	-472.3990478515625	1384.404907226562	409.2554931640625	-238.0997314453125	1337.110961914062	205.6515655517578	-204.1869506835938	1368.793090820312	441.8470764160156	-313.4389343261719	1337.714233398438	417.6211853027344	-337.5715942382812	1338.464599609375	451.0547790527344	-290.2105407714844	2093.099365234375	31.03385162353516	-433.3042602539062
240	1.195	1886.603271484375	1382.224365234375	-513.7169799804688	1983.200805664062	1377.78271484375	-238.5376434326172	1941.189575195312	931.2512817382812	-494.5172729492188	1963.541625976562	938.1898193359376	-218.1203308105469	1989.806274414062	887.15869140625	-468.6077270507812	2099.02734375	65.04431915283203	-400.6919555664062	1988.754638671875	893.9037475585938	-234.2284545898438	1868.75146484375	806.3812866210938	-516.642822265625	1830.074951171875	824.4315795898438	-185.6247100830078	1813.191528320312	923.8462524414062	-363.4146423339844	2025.749755859375	614.822021484375	-531.3768310546875	2074.091796875	248.2816467285156	-478.6700439453125	1964.80224609375	579.4801025390625	-497.4752197265625	2083.844482421875	534.97998046875	-513.5674438476562	1348.177001953125	298.3770751953125	-179.1632843017578	2058.9404296875	344.994384765625	-496.8056030273438	2018.716552734375	499.3180236816406	-485.7527465820312	1895.7822265625	593.5369873046875	-162.5697784423828	2348.2294921875	69.83753967285156	-463.4896240234375	1820.980224609375	617.404541015625	-158.8954467773438	1870.577758789062	495.4555358886719	-172.8791046142578	1790.155151367188	521.1627197265625	-168.1008911132812	2083.327392578125	447.00048828125	-507.4575805664062	1787.557861328125	450.9150695800781	-159.7842407226562	2139.129150390625	356.7081604003906	-511.0609130859375	2153.222412109375	256.3639221191406	-494.4478149414062	1679.158081054688	400.2021179199219	-166.6380157470703	2273.61865234375	47.68126678466797	-511.8739929199219	1661.892700195312	483.1141662597656	-178.7272796630859	2112.20263671875	37.83919525146484	-376.9160461425781	1579.42578125	383.9414672851562	-192.3716888427734	1571.222290039062	461.4071960449219	-203.3366546630859	2146.73046875	78.0518569946289	-468.1483154296875	1413.51025390625	407.9401245117188	-238.9446868896484	1364.979248046875	204.1085052490234	-207.2977447509766	1398.388916015625	441.5556945800781	-314.4590148925781	1367.293212890625	417.1333923339844	-338.3895874023438	1368.013671875	450.7630310058594	-291.0859375	2094.350341796875	32.99654006958008	-430.3194885253906
